<svg width="180" height="180" viewBox="0 0 180 180" fill="none" xmlns="http://www.w3.org/2000/svg">
<path d="M44.4583 62L40.9722 90L37.4861 118L34.8393 139.259C34.3936 142.839 37.1855 146 40.7933 146H52.7612C55.7884 146 58.3414 143.745 58.7153 140.741L71.161 40.741C71.6066 37.161 68.8147 34 65.207 34H53.2436C50.2166 34 47.6636 36.2548 47.2896 39.2587L44.4583 62Z" fill="#BF404A"/>
<path d="M81.4583 62L77.9722 90L74.4861 118L71.8393 139.259C71.3936 142.839 74.1855 146 77.7933 146H89.7612C92.7884 146 95.3414 143.745 95.7153 140.741L108.161 40.741C108.607 37.161 105.815 34 102.207 34H90.2436C87.2166 34 84.6636 36.2548 84.2896 39.2587L81.4583 62Z" fill="#73262D"/>
<path d="M118.458 62L114.972 90L111.486 118L108.839 139.259C108.394 142.839 111.186 146 114.793 146H126.761C129.788 146 132.341 143.745 132.715 140.741L145.161 40.741C145.607 37.161 142.815 34 139.207 34H127.244C124.217 34 121.664 36.2548 121.29 39.2587L118.458 62Z" fill="#130607"/>
</svg>
