<svg width="562" height="54" viewBox="0 0 562 54" fill="none" xmlns="http://www.w3.org/2000/svg">
  <path d="M0 11.4545L1.94318 0H47.4545L45.5114 11.4545H29.7614L23.0114 52.3636H9L15.75 11.4545H0Z" fill="#BF406A"/>
  <path d="M80.8324 0H95.0483L89.4744 33.5455C88.8267 37.5341 87.3097 40.9858 84.9233 43.9006C82.554 46.7983 79.5369 49.0398 75.8722 50.625C72.2074 52.1932 68.1335 52.9773 63.6506 52.9773C59.1335 52.9773 55.3153 52.1932 52.196 50.625C49.0767 49.0398 46.8097 46.7983 45.3949 43.9006C43.9972 40.9858 43.6222 37.5341 44.2699 33.5455L49.8438 0H64.0597L58.6903 32.3182C58.4347 33.9375 58.5625 35.3778 59.0739 36.6392C59.5852 37.9006 60.4119 38.8977 61.554 39.6307C62.696 40.3466 64.0767 40.7045 65.696 40.7045C67.3324 40.7045 68.8409 40.3466 70.2216 39.6307C71.6193 38.8977 72.7784 37.9006 73.6989 36.6392C74.6193 35.3778 75.2074 33.9375 75.4631 32.3182L80.8324 0Z" fill="#BF406A"/>
  <path d="M89.3147 52.3636L98.0078 0H120.61C124.496 0 127.778 0.707387 130.454 2.12216C133.13 3.53693 135.056 5.57387 136.232 8.23296C137.408 10.892 137.69 14.0795 137.076 17.7955C136.462 21.5455 135.107 24.7074 133.011 27.2812C130.931 29.8381 128.281 31.7812 125.059 33.1108C121.854 34.4233 118.258 35.0795 114.269 35.0795H100.769L102.61 24.0341H113.246C114.917 24.0341 116.383 23.8295 117.644 23.4205C118.906 22.9943 119.928 22.3295 120.712 21.4261C121.496 20.5057 122.008 19.2955 122.246 17.7955C122.485 16.2955 122.366 15.0767 121.889 14.1392C121.411 13.1847 120.619 12.4858 119.511 12.0426C118.403 11.5824 117.031 11.3523 115.394 11.3523H110.383L103.531 52.3636H89.3147ZM123.985 28.3295L133.087 52.3636H117.644L108.849 28.3295H123.985Z" fill="#BF406A"/>
  <path d="M135.018 52.3636L143.711 0H166.416C170.404 0 173.668 0.536933 176.208 1.6108C178.765 2.68466 180.572 4.2017 181.629 6.16193C182.702 8.12216 183.018 10.4318 182.575 13.0909C182.234 15 181.501 16.7472 180.376 18.3324C179.268 19.9006 177.862 21.2301 176.157 22.321C174.469 23.3949 172.586 24.1364 170.506 24.5455L170.404 25.0568C172.654 25.125 174.614 25.6875 176.285 26.7443C177.955 27.7841 179.183 29.233 179.967 31.0909C180.751 32.9318 180.938 35.0795 180.529 37.5341C180.052 40.3977 178.884 42.946 177.026 45.179C175.168 47.4119 172.756 49.1676 169.791 50.446C166.825 51.7244 163.45 52.3636 159.666 52.3636H135.018ZM151.177 41.0114H157.825C160.177 41.0114 162.026 40.5597 163.373 39.6562C164.737 38.7528 165.546 37.4318 165.802 35.6932C166.006 34.4659 165.904 33.4261 165.495 32.5739C165.086 31.7216 164.396 31.0739 163.424 30.6307C162.452 30.1875 161.234 29.9659 159.768 29.9659H152.916L151.177 41.0114ZM154.45 21.1705H160.279C161.506 21.1705 162.631 20.9744 163.654 20.5824C164.677 20.1903 165.521 19.6193 166.185 18.8693C166.85 18.1193 167.268 17.2159 167.438 16.1591C167.694 14.5227 167.302 13.2784 166.262 12.4261C165.239 11.5739 163.859 11.1477 162.12 11.1477H156.086L154.45 21.1705Z" fill="#BF406A"/>
  <path d="M233.727 27.8182C232.773 33.5114 230.881 38.2841 228.051 42.1364C225.222 45.9886 221.787 48.8949 217.747 50.8551C213.707 52.8153 209.386 53.7955 204.784 53.7955C199.875 53.7955 195.614 52.7301 192 50.5994C188.386 48.4688 185.753 45.3494 184.099 41.2415C182.446 37.1335 182.114 32.1136 183.102 26.1818C184.023 20.4886 185.898 15.6989 188.727 11.8125C191.557 7.92614 195.009 4.9858 199.082 2.99148C203.156 0.997159 207.511 0 212.148 0C217.023 0 221.259 1.07386 224.855 3.22159C228.469 5.36932 231.094 8.5142 232.73 12.6562C234.384 16.7983 234.716 21.8523 233.727 27.8182ZM219.409 26.1818C219.886 23.1818 219.92 20.6591 219.511 18.6136C219.102 16.5511 218.242 15 216.929 13.9602C215.617 12.9034 213.852 12.375 211.636 12.375C209.114 12.375 206.881 12.9886 204.938 14.2159C202.994 15.4432 201.384 17.2074 200.105 19.5085C198.827 21.8097 197.932 24.5795 197.42 27.8182C196.875 30.8523 196.824 33.375 197.267 35.3864C197.727 37.3977 198.631 38.9063 199.977 39.9119C201.341 40.9176 203.114 41.4205 205.295 41.4205C207.784 41.4205 209.983 40.8239 211.892 39.6307C213.818 38.4375 215.412 36.7074 216.673 34.4403C217.952 32.1733 218.864 29.4205 219.409 26.1818Z" fill="#BF406A"/>
  <path d="M266.009 52.3636L274.702 0H297.305C301.191 0 304.472 0.707387 307.148 2.12216C309.825 3.53693 311.751 5.57387 312.927 8.23296C314.103 10.892 314.384 14.0795 313.771 17.7955C313.157 21.5455 311.802 24.7074 309.705 27.2812C307.626 29.8381 304.975 31.7812 301.754 33.1108C298.549 34.4233 294.952 35.0795 290.964 35.0795H277.464L279.305 24.0341H289.941C291.612 24.0341 293.077 23.8295 294.339 23.4205C295.6 22.9943 296.623 22.3295 297.407 21.4261C298.191 20.5057 298.702 19.2955 298.941 17.7955C299.18 16.2955 299.06 15.0767 298.583 14.1392C298.106 13.1847 297.313 12.4858 296.205 12.0426C295.097 11.5824 293.725 11.3523 292.089 11.3523H287.077L280.225 52.3636H266.009ZM300.68 28.3295L309.782 52.3636H294.339L285.543 28.3295H300.68Z" fill="#260D15"/>
  <path d="M312.017 52.3636L320.71 0H358.449L356.506 11.4545H332.983L331.551 20.4545H353.131L351.188 31.9091H329.608L328.176 40.9091H351.597L349.653 52.3636H312.017Z" fill="#260D15"/>
  <path d="M361.421 0H379.114L386.376 29.6591H386.989L404.069 0H421.762L413.069 52.3636H399.16L404.171 22.0909H403.762L387.194 51.9546H378.808L372.16 21.8864H371.751L366.637 52.3636H352.728L361.421 0Z" fill="#260D15"/>
  <path d="M470.422 27.8182C469.467 33.5114 467.575 38.2841 464.746 42.1364C461.916 45.9886 458.482 48.8949 454.442 50.8551C450.402 52.8153 446.081 53.7955 441.479 53.7955C436.57 53.7955 432.308 52.7301 428.695 50.5994C425.081 48.4688 422.447 45.3494 420.794 41.2415C419.141 37.1335 418.808 32.1136 419.797 26.1818C420.717 20.4886 422.592 15.6989 425.422 11.8125C428.251 7.92614 431.703 4.9858 435.777 2.99148C439.851 0.997159 444.206 0 448.842 0C453.717 0 457.953 1.07386 461.55 3.22159C465.163 5.36932 467.788 8.5142 469.425 12.6562C471.078 16.7983 471.41 21.8523 470.422 27.8182ZM456.104 26.1818C456.581 23.1818 456.615 20.6591 456.206 18.6136C455.797 16.5511 454.936 15 453.624 13.9602C452.311 12.9034 450.547 12.375 448.331 12.375C445.808 12.375 443.575 12.9886 441.632 14.2159C439.689 15.4432 438.078 17.2074 436.8 19.5085C435.521 21.8097 434.626 24.5795 434.115 27.8182C433.57 30.8523 433.518 33.375 433.962 35.3864C434.422 37.3977 435.325 38.9063 436.672 39.9119C438.035 40.9176 439.808 41.4205 441.99 41.4205C444.479 41.4205 446.678 40.8239 448.587 39.6307C450.513 38.4375 452.107 36.7074 453.368 34.4403C454.646 32.1733 455.558 29.4205 456.104 26.1818Z" fill="#260D15"/>
  <path d="M472.695 11.4545L474.638 0H520.149L518.206 11.4545H502.456L495.706 52.3636H481.695L488.445 11.4545H472.695Z" fill="#260D15"/>
  <path d="M515.017 52.3636L523.71 0H561.449L559.506 11.4545H535.983L534.551 20.4545H556.131L554.188 31.9091H532.608L531.176 40.9091H554.597L552.653 52.3636H515.017Z" fill="#260D15"/>
  <path d="M238.529 13.0909L236.356 26.1818L234.183 39.2727L232.009 52.3636H247.009L255.699 0H240.702L238.529 13.0909Z" fill="#862D4A"/>
  <path d="M255.529 13.0909L253.356 26.1818L251.183 39.2727L249.009 52.3636H264.009L272.699 0H257.702L255.529 13.0909Z" fill="#4D192B"/>
</svg>
